<?xml version="1.0" standalone="no"?>
<!DOCTYPE svg PUBLIC "-//W3C//DTD SVG 20010904//EN"
 "http://www.w3.org/TR/2001/REC-SVG-20010904/DTD/svg10.dtd">
<svg version="1.0" xmlns="http://www.w3.org/2000/svg"
 width="700.000000pt" height="700.000000pt" viewBox="0 0 700.000000 700.000000"
 preserveAspectRatio="xMidYMid meet">
<metadata>
Created by potrace 1.14, written by Peter Selinger 2001-2017
</metadata>
<g transform="translate(0.000000,700.000000) scale(0.100000,-0.100000)"
fill="#000000" stroke="none">
<path d="M6095 6860 c-65 -14 -116 -65 -130 -127 l-7 -33 -2459 0 c-1352 0
-2459 3 -2460 8 -9 88 -77 152 -164 152 -76 0 -144 -54 -160 -127 l-7 -33 -96
-1 c-126 -2 -154 -5 -232 -29 -174 -52 -330 -223 -369 -405 -7 -35 -10 -914
-10 -2845 -1 -3091 -6 -2854 64 -2989 77 -148 230 -259 395 -288 19 -3 1390
-6 3045 -6 2771 0 3015 1 3075 17 153 39 282 139 353 273 72 138 67 -108 66
2998 l0 2800 -23 77 c-53 178 -188 318 -356 368 -85 26 -106 28 -227 29 l-102
1 -7 35 c-14 76 -113 142 -189 125z m-4997 -686 c34 -28 79 -103 92 -154 41
-154 -31 -310 -175 -381 -54 -26 -75 -31 -138 -31 -264 0 -418 289 -272 511
24 36 84 91 99 91 3 0 6 -69 6 -153 0 -142 2 -157 23 -198 62 -117 225 -117
285 1 19 38 22 60 21 145 -1 215 -1 220 19 203 9 -8 27 -24 40 -34z m4863
-101 c1 -163 2 -181 23 -221 27 -52 73 -77 141 -77 73 0 118 27 146 89 15 34
19 66 19 194 0 98 4 152 10 152 19 0 98 -89 122 -137 19 -40 23 -63 23 -143
-1 -85 -4 -100 -29 -145 -78 -140 -221 -205 -369 -168 -118 29 -218 130 -243
246 -10 45 -5 133 10 175 26 72 105 170 139 172 4 0 7 -62 8 -137z"/>
</g>
</svg>
